<?xml version="1.0" encoding="UTF-8" standalone="no"?>
<svg
   xmlns:dc="http://purl.org/dc/elements/1.1/"
   xmlns:cc="http://creativecommons.org/ns#"
   xmlns:rdf="http://www.w3.org/1999/02/22-rdf-syntax-ns#"
   xmlns:svg="http://www.w3.org/2000/svg"
   xmlns="http://www.w3.org/2000/svg"
   xmlns:sodipodi="http://sodipodi.sourceforge.net/DTD/sodipodi-0.dtd"
   xmlns:inkscape="http://www.inkscape.org/namespaces/inkscape"
   height="270.1275"
   width="270.1275"
   id="svg3023"
   version="1.1"
   inkscape:version="0.48.4 r9939"
   sodipodi:docname="WV_Reisethema_Fliegen.svg">
  <metadata
     id="metadata3059">
    <rdf:RDF>
      <cc:Work
         rdf:about="">
        <dc:format>image/svg+xml</dc:format>
        <dc:type
           rdf:resource="http://purl.org/dc/dcmitype/StillImage" />
        <dc:title></dc:title>
      </cc:Work>
    </rdf:RDF>
  </metadata>
  <defs
     id="defs3057">
    <inkscape:perspective
       id="perspective11"
       inkscape:persp3d-origin="376.56 : 223.84001 : 1"
       inkscape:vp_z="753.12 : 335.76001 : 1"
       inkscape:vp_y="0 : 1000 : 0"
       inkscape:vp_x="0 : 335.76001 : 1"
       sodipodi:type="inkscape:persp3d" />
  </defs>
  <sodipodi:namedview
     pagecolor="#ffffff"
     bordercolor="#666666"
     borderopacity="1"
     objecttolerance="10"
     gridtolerance="10"
     guidetolerance="10"
     inkscape:pageopacity="0"
     inkscape:pageshadow="2"
     inkscape:window-width="1920"
     inkscape:window-height="1018"
     id="namedview3055"
     showgrid="false"
     inkscape:zoom="2.7154688"
     inkscape:cx="94.049512"
     inkscape:cy="136.21875"
     inkscape:window-x="-8"
     inkscape:window-y="-8"
     inkscape:window-maximized="1"
     inkscape:current-layer="layer3"
     fit-margin-top="0"
     fit-margin-left="0"
     fit-margin-right="0"
     fit-margin-bottom="0" />
  <g
     inkscape:groupmode="layer"
     id="layer4"
     inkscape:label="e3"
     transform="translate(-5.4349962,-3.5912462)"
     sodipodi:insensitive="true"
     style="display:none">
    <rect
       style="color:#000000;fill:#dddedd;fill-opacity:1;stroke:#ff6317;stroke-width:0;stroke-linecap:butt;stroke-linejoin:round;stroke-miterlimit:4;stroke-opacity:1;stroke-dasharray:none;stroke-dashoffset:0;marker:none;visibility:visible;display:inline;overflow:visible;enable-background:accumulate"
       id="rect3054"
       width="270"
       height="270"
       x="5.4970002"
       y="3.6544626" />
  </g>
  <path
     d="m 229.56625,78.875754 38.891,-77.7820002 -77.782,38.8910002 c 18.98,5.0857 33.805,19.911 38.891,38.891 z"
     id="path3025"
     inkscape:connector-curvature="0"
     style="fill:#990000" />
  <path
     d="m 89.635258,67.058754 -86.8060004,5.2104 72.5710004,47.915996 c -5.0857,-18.98 0.34069,-39.231996 14.235,-53.125996 z"
     id="path3027"
     inkscape:connector-curvature="0"
     style="fill:#006699" />
  <path
     d="m 149.36625,194.14875 47.916,72.571 5.2104,-86.806 c -13.894,13.894 -34.146,19.321 -53.126,14.235 z"
     id="path3029"
     inkscape:connector-curvature="0"
     style="fill:#339966" />
  <g
     inkscape:groupmode="layer"
     id="layer1"
     inkscape:label="E1"
     style="display:inline"
     transform="translate(-4.9637423,-14.841246)">
    <path
       d="m 234.53,93.717002 38.891,-77.782 -77.782,38.891 c 18.98,5.0857 33.805,19.911 38.891,38.891 z"
       id="path3025-1"
       inkscape:connector-curvature="0"
       style="fill:#990000" />
    <path
       d="m 94.599,81.900002 -86.806,5.2104 72.571,47.915998 c -5.0857,-18.98 0.34069,-39.231998 14.235,-53.125998 z"
       id="path3027-7"
       inkscape:connector-curvature="0"
       style="fill:#006699" />
    <path
       d="m 154.33,208.99 47.916,72.571 5.2104,-86.806 c -13.894,13.894 -34.146,19.321 -53.126,14.235 z"
       id="path3029-4"
       inkscape:connector-curvature="0"
       style="fill:#339966" />
  </g>
  <g
     inkscape:groupmode="layer"
     id="layer3"
     inkscape:label="E2"
     transform="translate(-5.4349962,-3.5912462)"
     style="display:inline">
    <path
       d="m 173.3825,68.71875 0,6.874995 11.81749,0 c 1.48002,0 2.8335,0.917238 3.335,2.340426 l 4.06001,11.409575 -57.05751,0 -3.26249,-6.875001 10.14999,0 c 1.85921,-0.01245 3.33501,-1.539905 3.33501,-3.4375 0,-1.897594 -1.4758,-3.425798 -3.33501,-3.4375 l -26.09999,0 0,6.875 8.48248,0 4.85751,10.312499 -9.42499,20.039896 c -3.4977,-1.24288 -7.24589,-1.97473 -11.16501,-1.97473 -18.578849,0 -33.639994,15.19376 -33.639994,33.93617 0,18.74243 15.061145,33.93617 33.639994,33.93617 17.56564,0 31.97431,-13.61589 33.49501,-30.93751 l 15.0075,0 c 1.00297,0 2.02199,-0.47557 2.68249,-1.24335 l 37.41,-43.0053 3.77002,10.60504 c -11.38635,5.43849 -19.28502,17.09183 -19.28502,30.64495 0,18.74243 15.06115,33.93617 33.64002,33.93617 18.57884,0 33.63999,-15.19374 33.63999,-33.93617 0,-18.74241 -15.06115,-33.93617 -33.63999,-33.93617 -2.77344,0 -5.46925,0.38551 -8.04752,1.02394 l -12.8325,-36.05719 c -1.51672,-4.26332 -5.49246,-7.09441 -9.9325,-7.09441 l -11.59999,0 z m -34.5825,27.5 56.25999,0 L 158.52,138.20014 138.8,96.21875 z m -5.365,4.46144 18.85,40.15292 -9.78751,0 c -1.23661,-10.68469 -7.43721,-19.87319 -16.1675,-25.15959 l 7.10501,-14.99333 z m -24.36001,17.18751 c 2.84357,0 5.55003,0.48532 8.12,1.31646 l -11.16501,23.76997 c -0.48925,1.04867 -0.3941,2.23182 0.21751,3.21806 0.60548,0.98002 1.68386,1.60905 2.8275,1.60905 l 26.53502,0 c -1.467,13.46551 -12.79629,23.91622 -26.53502,23.91622 -14.734951,0 -26.679994,-12.0502 -26.679994,-26.91488 0,-14.86468 11.945043,-26.91488 26.679994,-26.91488 z m 106.72002,0 c 14.73494,0 26.67997,12.0502 26.67997,26.91488 0,14.86468 -11.94503,26.91488 -26.67997,26.91488 -14.73496,0 -26.68001,-12.0502 -26.68001,-26.91488 0,-10.50213 6.02114,-19.55415 14.7175,-23.98937 l 8.7725,24.72075 c 0.64829,1.76651 2.61311,2.6239 4.35,1.97472 1.70996,-0.64134 2.53802,-2.55961 1.95749,-4.31514 l -8.7725,-24.72075 c 1.8277,-0.39913 3.70889,-0.58509 5.65502,-0.58509 z m -92.43753,4.16886 c 6.4096,4.10402 10.95601,10.89374 12.10751,18.79655 l -20.9525,0 8.84499,-18.79655"
       id="symbool_fiets_zwart"
       inkscape:connector-curvature="0"
       style="fill:#000000" />
  </g>
  <g
     inkscape:groupmode="layer"
     id="layer2"
     inkscape:label="E1#1"
     transform="translate(-5.4349962,-3.5912462)" />
</svg>
